<?xml version="1.0" encoding="UTF-8"?>
<!DOCTYPE svg PUBLIC "-//W3C//DTD SVG 1.1//EN" "http://www.w3.org/Graphics/SVG/1.1/DTD/svg11.dtd">
<!-- Creator: CorelDRAW -->
<svg xmlns="http://www.w3.org/2000/svg" xml:space="preserve" width="80mm" height="80mm" shape-rendering="geometricPrecision" text-rendering="geometricPrecision" image-rendering="optimizeQuality" fill-rule="evenodd" clip-rule="evenodd"
viewBox="0 0 80 80"
 xmlns:xlink="http://www.w3.org/1999/xlink">
 <g id="Warstwa_x0020_1">
  <metadata id="CorelCorpID_0Corel-Layer"/>
  <rect fill="none" width="80" height="80"/>
  <path id="svg" fill="#4A4C4C" d="M53.8526 2.4802c20.7062,7.6411 31.3053,30.6393 23.6686,51.3574 -7.6367,20.7181 -30.6219,31.3232 -51.3282,23.6821 -20.7062,-7.641 -31.3052,-30.6393 -23.6685,-51.3574 7.6367,-20.718 30.6218,-31.3231 51.3281,-23.6821zm-41.979 18.7691c3.497,-4.5119 7.4346,-8.0325 11.6041,-11.3531 0.5808,-2.3296 1.5597,-4.6838 2.645,-6.7987 -11.207,4.6967 -18.0107,12.6762 -22.5192,23.4751 2.7291,-2.0514 5.4717,-3.6119 8.2701,-5.3233zm14.9254 42.3515c2.9878,-3.3565 5.5522,-7.298 6.7899,-10.9573 -2.4785,-3.8302 -5.6691,-8.8949 -7.1525,-14.4446 -4.0175,-0.7107 -8.1302,-1.3136 -11.9273,-1.9432 -3.283,3.705 -6.3433,7.635 -8.1291,12.1782 1.0769,5.371 3.8491,10.1385 7.0951,14.2233 4.7504,1.2099 8.9582,0.8761 13.3239,0.9436zm7.9594 -10.4009c5.177,0.0525 10.7705,-0.7988 15.9034,-2.1348 2.6489,3.2928 5.5886,6.55 8.7139,9.304 -1.6652,4.2162 -4.1973,8.5983 -7.1827,12.0987 -4.3459,2.1407 -8.7713,3.366 -14.16,2.6065 -4.7,-2.4775 -7.7419,-6.287 -10.0004,-10.8648 2.8934,-3.4772 5.2284,-6.6458 6.7258,-11.0096zm39.6298 -14.9501c0.6323,4.6924 0.1152,9.7895 -1.9472,15.4598 0.805,2.641 0.479,5.6362 0.1177,9.1045 7.9899,-11.8008 8.0455,-25.672 4.7451,-32.5495 -0.165,2.4831 -1.2906,5.6121 -2.9156,7.9852zm-19.3825 -4.076c3.0785,-1.265 6.1643,-2.9276 8.9812,-4.6893 4.5253,2.4989 7.249,4.533 9.7816,8.6689 0.5944,5.0215 0.1961,9.4193 -1.9472,15.4599 -3.1566,2.6083 -6.6404,5.1242 -11.4682,5.8581 -3.2383,-2.8243 -6.0499,-5.9771 -8.7046,-9.3291 1.504,-5.3619 2.8156,-10.8804 3.3572,-15.9685zm-9.7631 -32.9323c2.3357,1.8052 4.6419,4.1426 6.6023,6.4382 3.8926,1.3508 7.3165,3.6718 10.419,5.96 2.5825,0.3814 5.0134,1.2499 7.2901,2.4616 -5.3054,-7.8462 -14.3512,-13.3852 -24.3114,-14.8598zm-5.2417 23.8266c-0.8406,-3.8259 -1.5371,-8.5705 -1.3807,-12.0858 4.0582,-3.0187 8.4126,-4.9562 13.0591,-4.6708 4.0698,1.4733 7.1022,3.6499 10.2722,5.9059 1.3239,3.9472 1.3961,8.5758 1.4441,14.0244 -2.9273,1.8353 -5.7004,3.3274 -8.9812,4.6893 -4.3576,-3.1802 -9.173,-5.8719 -14.4135,-7.863zm-13.303 11.8235c3.2761,-5.1939 7.9946,-8.7978 12.0123,-11.6312 -0.7916,-3.808 -1.4998,-7.8424 -1.3805,-12.0859 -4.2555,-1.799 -8.5174,-2.6 -13.2988,-2.821 -4.1721,3.1768 -8.1627,6.9922 -11.6286,11.3441 -0.3908,4.8295 0.4709,9.5779 2.3776,13.2256 3.944,0.6837 7.9496,1.2757 11.918,1.9684zm31.368 38.4371l-5.331 -1.6328c-5.0563,2.0039 -9.9683,2.8176 -14.7292,2.2558l-5.624 2.6898c7.869,1.615 16.3623,0.7782 25.6842,-3.3128zm-52.5126 -26.6514c1.0621,5.3477 3.5955,10.165 7.4074,14.5211l0.0254 5.4434c-7.6868,-7.2954 -12.0479,-17.4375 -12.9861,-28.9303 1.1359,3.5804 3.0996,6.9057 5.5533,8.9658z"/>
 </g>
</svg>
